<svg width="66" height="66" viewBox="0 0 66 66" fill="none" xmlns="http://www.w3.org/2000/svg">
<rect x="0.5" y="0.5" width="65" height="65" rx="15.5" fill="url(#paint0_linear_0_1)"/>
<rect x="0.5" y="0.5" width="65" height="65" rx="15.5" stroke="black"/>
<rect x="0.5" y="0.5" width="65" height="65" rx="15.5" stroke="#B8D500"/>
<path d="M29.4033 41.6006C29.3455 41.8306 27.8982 47.2501 19.9375 47.2501C19.6225 47.2501 19.3205 47.125 19.0978 46.9023C18.8751 46.6796 18.75 46.3775 18.75 46.0626C18.75 38.1019 24.1694 36.6546 24.3995 36.5967C24.7052 36.5204 25.0287 36.5685 25.2989 36.7307C25.569 36.8929 25.7637 37.1557 25.8401 37.4614C25.9165 37.7671 25.8683 38.0906 25.7061 38.3607C25.544 38.6309 25.2811 38.8256 24.9755 38.902C24.8419 38.9391 21.6475 39.8727 21.1814 44.8187C26.1273 44.3526 27.0625 41.1642 27.1011 41.0157C27.1798 40.7104 27.3766 40.4489 27.6482 40.2887C27.9197 40.1285 28.2438 40.0827 28.5491 40.1615C28.8544 40.2402 29.1159 40.437 29.2761 40.7085C29.4363 40.9801 29.4821 41.3042 29.4033 41.6095V41.6006ZM43.208 31.5959L42.5 32.3039V40.9623C42.5017 41.2754 42.4412 41.5857 42.322 41.8752C42.2027 42.1647 42.0271 42.4275 41.8053 42.6485L36.7109 47.7399C36.4912 47.9612 36.2299 48.1368 35.942 48.2565C35.6541 48.3762 35.3454 48.4378 35.0336 48.4376C34.7762 48.4375 34.5206 48.3959 34.2765 48.3144C33.8575 48.1758 33.4856 47.9227 33.2028 47.5838C32.92 47.2449 32.7377 46.8337 32.6764 46.3966L31.8793 40.6832L25.3169 34.1208L19.6065 33.3237C19.1688 33.2623 18.7569 33.08 18.4172 32.7973C18.0775 32.5146 17.8234 32.1427 17.6835 31.7235C17.5436 31.3043 17.5234 30.8543 17.6253 30.4242C17.7272 29.9942 17.947 29.6011 18.2601 29.2892L23.3515 24.1948C23.5725 23.973 23.8354 23.7974 24.1249 23.6781C24.4144 23.5588 24.7247 23.4983 25.0378 23.5001H33.6962L34.4042 22.792C38.3645 18.8332 43.1353 18.6625 45.0041 18.7738C45.5831 18.809 46.1293 19.0549 46.5394 19.4651C46.9496 19.8753 47.1955 20.4214 47.2307 21.0004C47.339 22.8633 47.1683 27.6356 43.2095 31.5959H43.208ZM31.3212 25.8751H25.0378L19.9375 30.9724L25.4519 31.7413L31.3212 25.8751ZM40.125 34.6789L34.2572 40.5467L35.0291 46.0626L40.125 40.9623V34.6789Z" fill="black"/>
<defs>
<linearGradient id="paint0_linear_0_1" x1="33" y1="0" x2="33" y2="66" gradientUnits="userSpaceOnUse">
<stop stop-color="#DBFF0A"/>
<stop offset="1" stop-color="#DBFF0A" stop-opacity="0"/>
</linearGradient>
</defs>
</svg>
