<svg width="66" height="66" viewBox="0 0 66 66" fill="none" xmlns="http://www.w3.org/2000/svg">
<rect x="0.5" y="0.5" width="65" height="65" rx="15.5" fill="url(#paint0_linear_0_1)" stroke="#B8D500"/>
<path d="M19.2636 26.8636L45.3975 18.8479C45.7512 18.7448 46.1241 18.7253 46.4866 18.7911C46.8492 18.8569 47.1914 19.0061 47.4863 19.227C47.7812 19.4479 48.0207 19.7344 48.1858 20.0638C48.3509 20.3932 48.437 20.7565 48.4375 21.125V42.5C48.4375 43.1299 48.1873 43.7339 47.7419 44.1793C47.2965 44.6247 46.6924 44.875 46.0625 44.875C45.8354 44.875 45.6094 44.8426 45.3916 44.7785L33 40.9755V42.5C33 43.1299 32.7498 43.7339 32.3044 44.1793C31.859 44.6247 31.2549 44.875 30.625 44.875H25.875C25.2451 44.875 24.641 44.6247 24.1956 44.1793C23.7502 43.7339 23.5 43.1299 23.5 42.5V38.0617L19.2636 36.7629C18.7733 36.6155 18.3433 36.3146 18.037 35.9043C17.7307 35.4941 17.5644 34.9963 17.5625 34.4843V29.1406C17.5647 28.6289 17.7312 28.1314 18.0375 27.7215C18.3437 27.3115 18.7735 27.0108 19.2636 26.8636ZM25.875 42.5H30.625V40.2467L25.875 38.789V42.5ZM19.9375 34.4843H19.9538L30.625 37.7618V25.8616L19.9538 29.1406H19.9375V34.4843Z" fill="black"/>
<defs>
<linearGradient id="paint0_linear_0_1" x1="33" y1="0" x2="33" y2="66" gradientUnits="userSpaceOnUse">
<stop stop-color="#DBFF0A"/>
<stop offset="1" stop-color="#DBFF0A" stop-opacity="0"/>
</linearGradient>
</defs>
</svg>
