<svg width="64" height="72" viewBox="0 0 64 72" fill="none" xmlns="http://www.w3.org/2000/svg">
<path d="M55.7792 14.0445C55.7263 13.7261 55.4664 13.482 55.1447 13.4516C54.8916 13.41 49.3284 13.0286 49.3284 13.0286L45.0872 8.78737C44.7047 8.36438 43.8587 8.48812 43.5392 8.57588C43.4976 8.57588 42.6932 8.829 41.3769 9.2565C40.0978 5.55525 37.8332 2.16225 33.8439 2.16225H33.5031C32.3601 0.680625 30.9606 0 29.7793 0C20.4913 0.041625 16.0656 11.6246 14.6661 17.5432L8.17481 19.5345C6.18356 20.169 6.11043 20.2151 5.84268 22.1141L0.36731 64.3219L41.3938 72L63.6272 67.2075C63.6272 67.1659 55.8197 14.4473 55.7792 14.0445ZM39.1022 9.9675C38.0706 10.3084 36.8938 10.6481 35.6259 11.0306V10.2656C35.6635 8.35668 35.3774 6.45516 34.7799 4.64175C36.8589 4.96125 38.2562 7.29338 39.1033 9.96638L39.1022 9.9675ZM32.2757 5.13225C32.9541 7.1325 33.2691 9.2385 33.2049 11.3501V11.7326L26.0331 13.941C27.4371 8.6985 30.0257 6.10875 32.2757 5.13225ZM29.5194 2.55263C29.9437 2.56165 30.3562 2.69419 30.7063 2.934C27.7138 4.32675 24.5503 7.84575 23.1936 14.8894L17.5179 16.6286C19.1188 11.2838 22.8538 2.5425 29.5161 2.5425L29.5194 2.55263Z" fill="white"/>
<path d="M33.845 25.7509L31.0843 33.8982C29.4159 33.0904 27.5923 32.6562 25.7383 32.6235C21.4093 32.6235 21.1978 35.337 21.1978 36.0188C21.1978 39.729 30.9133 41.1533 30.9133 49.8934C30.9133 56.7672 26.5426 61.1772 20.6758 61.1772C13.6333 61.1772 10.0254 56.8065 10.0254 56.8065L11.8985 50.5628C11.8985 50.5628 15.5885 53.7465 18.7306 53.7465C19.1063 53.7609 19.4809 53.6988 19.8318 53.5642C20.1828 53.4295 20.5027 53.2251 20.7724 52.9632C21.042 52.7014 21.2558 52.3875 21.4006 52.0407C21.5455 51.6938 21.6185 51.3212 21.6151 50.9453C21.6151 46.0628 13.6389 45.8524 13.6389 37.875C13.6389 31.1678 18.4741 24.6338 28.1896 24.6338C32.0079 24.69 33.8349 25.7475 33.8349 25.7475L33.845 25.7509Z" fill="#090A00"/>
</svg>
