<svg width="69" height="45" viewBox="0 0 69 45" fill="none" xmlns="http://www.w3.org/2000/svg">
<path d="M34.6065 43.8073C31.5887 43.7319 29.099 42.3724 27.5092 39.5346C25.8797 36.6011 25.9506 33.598 27.6881 30.7369C31.8244 23.9278 36.0146 17.1564 40.1793 10.3676C41.031 8.97906 41.8628 7.57028 42.7542 6.20788C43.9376 4.34445 45.7867 3.02633 47.9077 2.53418C50.0287 2.04202 52.254 2.41473 54.1099 3.57293C58.0305 6.03975 59.342 11.1705 56.9006 15.2142C51.9097 23.5143 46.8479 31.7737 41.7152 39.9926C40.1339 42.5348 37.735 43.7609 34.6065 43.8073Z" fill="white"/>
<path d="M8.68682 43.8083C5.64065 43.733 3.16511 42.3126 1.60654 39.4863C-0.000286222 36.5528 0.101915 33.5439 1.84501 30.6829C6.29455 23.3935 10.764 16.1148 15.2532 8.84675C15.821 7.90756 16.3888 6.94518 16.9963 6.03498C18.2283 4.21201 20.1067 2.95014 22.2339 2.51655C24.361 2.08296 26.57 2.51168 28.393 3.71194C30.216 4.9122 31.51 6.78978 32.001 8.94714C32.4919 11.1045 32.1414 13.3723 31.0235 15.2703C26.0497 23.4708 21.0077 31.6424 15.963 39.8052C14.3249 42.4517 11.9147 43.7619 8.68682 43.8083Z" fill="white"/>
<path d="M60.693 27.1867C65.2836 27.2099 68.9997 30.9348 68.9912 35.5031C68.9912 40.1411 65.1757 43.8805 60.5426 43.8225C55.9095 43.7645 52.2586 40.0802 52.2643 35.4916C52.27 30.8362 56.0003 27.1577 60.693 27.1867Z" fill="white"/>
</svg>
