<svg width="52" height="31" viewBox="0 0 52 31" fill="none" xmlns="http://www.w3.org/2000/svg">
<g clip-path="url(#clip0_20_852)">
<path d="M26 0.0412292C19.0667 0.0412292 14.7333 3.47658 13 10.3471C15.6 6.91173 18.6333 5.6235 22.1 6.48239C24.0778 6.97232 25.4916 8.3944 27.0565 9.96826C29.6057 12.5324 32.5559 15.5 39 15.5C45.9333 15.5 50.2667 12.0647 52 5.19415C49.4 8.62951 46.3667 9.91774 42.9 9.05885C40.9222 8.56892 39.5084 7.14683 37.9435 5.57298C35.3943 3.00879 32.4441 0.0412292 26 0.0412292ZM13 15.5C6.06673 15.5 1.73327 18.9354 0 25.8059C2.6 22.3705 5.63327 21.0823 9.1 21.9412C11.0778 22.4311 12.4916 23.8532 14.0565 25.427C16.6057 27.9912 19.5559 30.9588 26 30.9588C32.9333 30.9588 37.2667 27.5234 39 20.6529C36.4 24.0883 33.3667 25.3765 29.9 24.5176C27.9222 24.0277 26.5084 22.6056 24.9435 21.0317C22.3943 18.4676 19.4441 15.5 13 15.5Z" fill="url(#paint0_linear_20_852)"/>
</g>
<defs>
<linearGradient id="paint0_linear_20_852" x1="-369.807" y1="1519.7" x2="-218.583" y2="3232.13" gradientUnits="userSpaceOnUse">
<stop stop-color="white"/>
<stop offset="1" stop-color="#0ED7B5"/>
</linearGradient>
<clipPath id="clip0_20_852">
<rect width="52" height="31" fill="white"/>
</clipPath>
</defs>
</svg>
