<svg width="48" height="51" viewBox="0 0 48 51" fill="none" xmlns="http://www.w3.org/2000/svg">
<g clip-path="url(#clip0_20_844)">
<path d="M47.8876 11.6363C47.9054 11.7039 47.9145 11.7735 47.9146 11.8435V22.7239C47.9146 22.8636 47.8788 23.0008 47.8107 23.1216C47.7425 23.2424 47.6446 23.3427 47.5267 23.4121L38.6403 28.6699V39.0912C38.6403 39.3748 38.4936 39.6366 38.2543 39.7794L19.7047 50.753C19.6622 50.7778 19.6159 50.7936 19.5696 50.8105C19.5522 50.8164 19.5358 50.8274 19.5175 50.8323C19.3878 50.8674 19.2515 50.8674 19.1219 50.8323C19.1006 50.8264 19.0813 50.8145 19.0611 50.8065C19.0186 50.7907 18.9742 50.7768 18.9337 50.753L0.387918 39.7794C0.270102 39.7098 0.172209 39.6096 0.104105 39.4887C0.0360015 39.3679 9.33506e-05 39.2308 0 39.0912L0 6.44994C0 6.37854 0.00964971 6.30913 0.0270192 6.24169C0.032809 6.21889 0.0463186 6.19806 0.0540383 6.17525C0.0685129 6.1336 0.0820225 6.09096 0.103252 6.05229C0.117726 6.0265 0.138956 6.00568 0.156325 5.98188C0.17852 5.95015 0.198784 5.91742 0.224838 5.88966C0.247032 5.86685 0.275982 5.84999 0.301071 5.83016C0.329055 5.80636 0.354144 5.78058 0.385988 5.76173L9.66032 0.274924C9.77774 0.205489 9.91084 0.168945 10.0463 0.168945C10.1818 0.168945 10.3149 0.205489 10.4323 0.274924L19.7057 5.76173H19.7076C19.7385 5.78157 19.7645 5.80636 19.7925 5.82917C19.8176 5.849 19.8456 5.86685 19.8678 5.88867C19.8948 5.91742 19.9141 5.95015 19.9373 5.98188C19.9537 6.00568 19.9759 6.0265 19.9894 6.05229C20.0116 6.09195 20.0241 6.1336 20.0395 6.17525C20.0473 6.19806 20.0608 6.21889 20.0666 6.24269C20.0843 6.31026 20.0934 6.37994 20.0936 6.44994V26.8373L27.8211 22.2648V11.8425C27.8211 11.7731 27.8307 11.7027 27.8481 11.6363C27.8548 11.6125 27.8674 11.5917 27.8751 11.5688C27.8905 11.5272 27.904 11.4846 27.9253 11.4459C27.9398 11.4201 27.961 11.3993 27.9774 11.3755C28.0005 11.3437 28.0198 11.311 28.0469 11.2833C28.0691 11.2604 28.097 11.2436 28.1221 11.2238C28.1511 11.2 28.1762 11.1742 28.207 11.1553L37.4823 5.66852C37.5997 5.59899 37.7328 5.56239 37.8683 5.56239C38.0038 5.56239 38.1369 5.59899 38.2543 5.66852L47.5277 11.1553C47.5605 11.1752 47.5856 11.2 47.6145 11.2228C47.6387 11.2426 47.6666 11.2604 47.6888 11.2823C47.7159 11.311 47.7352 11.3437 47.7583 11.3755C47.7757 11.3993 47.7969 11.4201 47.8104 11.4459C47.8326 11.4846 47.8452 11.5272 47.8606 11.5688C47.8693 11.5917 47.8818 11.6125 47.8876 11.6363ZM46.3688 22.2648V13.217L43.1236 15.1368L38.6403 17.7895V26.8373L46.3697 22.2648H46.3688ZM37.0954 38.632V29.5782L32.6855 32.1664L20.0926 39.5523V48.6913L37.0954 38.632ZM1.54588 7.82338V38.632L18.5467 48.6903V39.5533L9.66514 34.3877L9.66225 34.3858L9.65839 34.3838C9.62847 34.3659 9.60338 34.3401 9.5754 34.3183C9.55128 34.2985 9.52329 34.2826 9.50206 34.2608L9.50013 34.2578C9.47504 34.233 9.45767 34.2023 9.43645 34.1745C9.41715 34.1478 9.39399 34.125 9.37855 34.0972L9.37758 34.0942C9.36021 34.0645 9.3496 34.0288 9.33705 33.9951C9.32451 33.9653 9.3081 33.9375 9.30038 33.9058C9.29073 33.8681 9.2888 33.8275 9.28494 33.7888C9.28109 33.759 9.27337 33.7293 9.27337 33.6995V12.3959L4.79108 9.74222L1.54588 7.82338ZM10.0473 1.87942L2.32075 6.44994L10.0453 11.0205L17.7709 6.44895L10.0453 1.87942H10.0473ZM14.0654 30.4033L18.5477 27.7516V7.82338L15.3025 9.74322L10.8192 12.3959V32.3241L14.0654 30.4033ZM37.8683 7.27301L30.1428 11.8435L37.8683 16.4141L45.5929 11.8425L37.8683 7.27301ZM37.0954 17.7895L32.6121 15.1368L29.3669 13.217V22.2648L33.8492 24.9165L37.0954 26.8373V17.7895ZM19.3187 38.1788L30.6504 31.5308L36.3147 28.2088L28.595 23.6412L19.7066 28.8999L11.6057 33.6926L19.3187 38.1788Z" fill="white"/>
</g>
<defs>
<clipPath id="clip0_20_844">
<rect width="48" height="51" fill="white"/>
</clipPath>
</defs>
</svg>
