<svg width="91" height="54" viewBox="0 0 91 54" fill="none" xmlns="http://www.w3.org/2000/svg">
<g clip-path="url(#clip0_20_748)">
<path d="M25.9402 19.6118C25.9402 20.723 26.0588 21.624 26.2664 22.2848C26.5037 22.9455 26.8003 23.6663 27.2155 24.4472C27.3638 24.6874 27.4231 24.9277 27.4231 25.1379C27.4231 25.4383 27.2451 25.7386 26.8596 26.0389L24.9911 27.3003C24.7242 27.4805 24.4572 27.5706 24.22 27.5706C23.9234 27.5706 23.6268 27.4205 23.3302 27.1502C22.915 26.6997 22.5591 26.2191 22.2625 25.7386C21.9659 25.228 21.6693 24.6574 21.3431 23.9666C19.0297 26.7297 16.1232 28.1112 12.6235 28.1112C10.1322 28.1112 8.14507 27.3904 6.6918 25.9488C5.23853 24.5072 4.49707 22.5851 4.49707 20.1824C4.49707 17.6296 5.38683 15.5573 7.19599 13.9956C9.00516 12.4338 11.4075 11.6529 14.4623 11.6529C15.4707 11.6529 16.5088 11.743 17.6061 11.8932C18.7035 12.0434 19.8305 12.2836 21.0169 12.554V10.3615C21.0169 8.07898 20.5423 6.48721 19.6229 5.55617C18.6738 4.62514 17.0723 4.17464 14.7886 4.17464C13.7505 4.17464 12.6828 4.29477 11.5855 4.56507C10.4881 4.83537 9.42038 5.16574 8.38234 5.58621C7.9078 5.79644 7.5519 5.91657 7.34429 5.97664C7.13668 6.03671 6.98839 6.06674 6.86975 6.06674C6.45453 6.06674 6.24692 5.76641 6.24692 5.13571V3.66407C6.24692 3.18354 6.30624 2.82314 6.45453 2.6129C6.60282 2.40267 6.86975 2.19244 7.28497 1.9822C8.32302 1.4416 9.56868 0.991101 11.0219 0.630701C12.4752 0.240267 14.0175 0.0600667 15.6487 0.0600667C19.178 0.0600667 21.7583 0.870968 23.4192 2.49277C25.0504 4.11457 25.8809 6.57731 25.8809 9.88098V19.6118H25.9402ZM13.8988 24.1769C14.8775 24.1769 15.8859 23.9967 16.9536 23.6363C18.0214 23.2759 18.9704 22.6151 19.7712 21.7141C20.2457 21.1435 20.6016 20.5128 20.7796 19.792C20.9575 19.0712 21.0762 18.2002 21.0762 17.1791V15.9177C20.2161 15.7075 19.2967 15.5273 18.3476 15.4071C17.3985 15.287 16.4791 15.2269 15.5597 15.2269C13.5726 15.2269 12.1193 15.6174 11.1406 16.4283C10.1618 17.2392 9.68731 18.3804 9.68731 19.8821C9.68731 21.2937 10.0432 22.3448 10.7847 23.0656C11.4965 23.8165 12.5345 24.1769 13.8988 24.1769ZM37.7146 27.4205C37.1807 27.4205 36.8248 27.3304 36.5876 27.1201C36.3503 26.9399 36.1427 26.5195 35.9648 25.9488L28.995 2.73304C28.817 2.13237 28.7281 1.74194 28.7281 1.5317C28.7281 1.05117 28.9653 0.780868 29.4399 0.780868H32.3464C32.9099 0.780868 33.2955 0.870968 33.5031 1.0812C33.7404 1.2614 33.9183 1.68187 34.0963 2.2525L39.0789 22.1346L43.7056 2.2525C43.8539 1.65184 44.0319 1.2614 44.2691 1.0812C44.5064 0.901001 44.9216 0.780868 45.4555 0.780868H47.8282C48.3917 0.780868 48.7772 0.870968 49.0145 1.0812C49.2518 1.2614 49.4594 1.68187 49.578 2.2525L54.264 22.3749L59.395 2.2525C59.5729 1.65184 59.7805 1.2614 59.9881 1.0812C60.2254 0.901001 60.611 0.780868 61.1448 0.780868H63.9031C64.3776 0.780868 64.6445 1.02113 64.6445 1.5317C64.6445 1.68187 64.6149 1.83204 64.5852 2.01224C64.5556 2.19244 64.4962 2.4327 64.3776 2.76307L57.2299 25.9789C57.0519 26.5795 56.8443 26.97 56.6071 27.1502C56.3698 27.3304 55.9842 27.4505 55.48 27.4505H52.9294C52.3659 27.4505 51.9803 27.3604 51.7431 27.1502C51.5058 26.9399 51.2982 26.5495 51.1796 25.9488L46.5825 6.57731L42.0151 25.9188C41.8668 26.5195 41.6888 26.9099 41.4516 27.1201C41.2143 27.3304 40.7991 27.4205 40.2652 27.4205H37.7146ZM75.8258 28.2314C74.2835 28.2314 72.7413 28.0512 71.2584 27.6908C69.7755 27.3304 68.6188 26.9399 67.8476 26.4894C67.3731 26.2191 67.0469 25.9188 66.9282 25.6485C66.8096 25.3782 66.7503 25.0779 66.7503 24.8076V23.2759C66.7503 22.6452 66.9876 22.3448 67.4324 22.3448C67.6104 22.3448 67.7883 22.3749 67.9663 22.4349C68.1442 22.495 68.4112 22.6151 68.7077 22.7353C69.7161 23.1858 70.8135 23.5462 71.9702 23.7864C73.1565 24.0267 74.3132 24.1468 75.4995 24.1468C77.368 24.1468 78.8213 23.8165 79.8297 23.1557C80.8381 22.495 81.3719 21.5339 81.3719 20.3026C81.3719 19.4616 81.105 18.7709 80.5712 18.2002C80.0373 17.6296 79.0289 17.119 77.5756 16.6385L73.2752 15.287C71.1101 14.5962 69.5085 13.5751 68.5298 12.2236C67.5511 10.9021 67.0469 9.43048 67.0469 7.86874C67.0469 6.60734 67.3138 5.49611 67.8476 4.53504C68.3815 3.57397 69.0933 2.73304 69.9831 2.0723C70.8728 1.38154 71.8812 0.870968 73.0676 0.510567C74.2539 0.150167 75.4995 0 76.8045 0C77.457 0 78.1392 0.0300334 78.7916 0.120133C79.4738 0.210234 80.0966 0.330367 80.7194 0.450501C81.3126 0.600667 81.8761 0.750834 82.41 0.931034C82.9438 1.11123 83.359 1.29144 83.6556 1.47164C84.0709 1.7119 84.3674 1.95217 84.5454 2.22247C84.7233 2.46274 84.8123 2.7931 84.8123 3.21357V4.62514C84.8123 5.25584 84.5751 5.58621 84.1302 5.58621C83.8929 5.58621 83.5073 5.46607 83.0031 5.22581C81.3126 4.44494 79.4145 4.0545 77.3087 4.0545C75.6182 4.0545 74.2835 4.32481 73.3641 4.89544C72.4447 5.46607 71.9702 6.33704 71.9702 7.56841C71.9702 8.40934 72.2668 9.13015 72.8599 9.70078C73.4531 10.2714 74.5505 10.842 76.1224 11.3526L80.3339 12.7041C82.4693 13.3949 84.0115 14.356 84.9309 15.5873C85.8504 16.8187 86.2952 18.2303 86.2952 19.792C86.2952 21.0834 86.0283 22.2547 85.5241 23.2759C84.9903 24.297 84.2785 25.198 83.359 25.9188C82.4396 26.6696 81.3423 27.2102 80.067 27.6007C78.7323 28.0211 77.3384 28.2314 75.8258 28.2314Z" fill="white"/>
<path fill-rule="evenodd" clip-rule="evenodd" d="M81.4319 42.8275C71.6742 50.1256 57.4975 53.9999 45.3078 53.9999C28.2245 53.9999 12.8317 47.6028 1.2056 36.9709C0.286189 36.13 1.11663 34.9887 2.21399 35.6495C14.7892 43.0377 30.3006 47.5127 46.3459 47.5127C57.1712 47.5127 69.0643 45.2301 80.0083 40.5449C81.6395 39.7941 83.0334 41.6261 81.4319 42.8275Z" fill="white"/>
<path fill-rule="evenodd" clip-rule="evenodd" d="M85.4948 38.1423C84.2491 36.5205 77.2497 37.3615 74.0762 37.7519C73.1272 37.872 72.9789 37.0311 73.839 36.4004C79.4148 32.436 88.5792 33.5773 89.647 34.8987C90.7147 36.2502 89.3504 45.5306 84.1305 49.9755C83.3297 50.6663 82.5586 50.3059 82.9145 49.4049C84.1008 46.4316 86.7404 39.7341 85.4948 38.1423Z" fill="white"/>
</g>
<defs>
<clipPath id="clip0_20_748">
<rect width="91" height="54" fill="white"/>
</clipPath>
</defs>
</svg>
