<svg width="57" height="46" viewBox="0 0 57 46" fill="none" xmlns="http://www.w3.org/2000/svg">
<path d="M22.0994 31.7079C22.0994 34.2115 20.805 38.3082 17.7412 38.3082C14.6775 38.3082 13.3831 34.2115 13.3831 31.7079C13.3831 29.2043 14.6775 25.1076 17.7412 25.1076C20.805 25.1076 22.0994 29.2043 22.0994 31.7079ZM57 25.6586C57 29.4799 56.62 33.5287 54.9219 37.0385C50.4212 46.2142 38.0475 45.9986 29.1887 45.9986C20.1875 45.9986 7.0775 46.3221 2.39875 37.0385C0.665 33.5646 0 29.4799 0 25.6586C0 20.6395 1.65062 15.8959 4.92812 12.0507C4.31063 10.158 4.01375 8.16955 4.01375 6.20502C4.01375 3.62958 4.59562 2.33587 5.7475 0C11.1269 0 14.5706 1.07809 18.6675 4.31237C22.1112 3.48583 25.65 3.11449 29.2006 3.11449C32.4069 3.11449 35.6369 3.46188 38.7481 4.21654C42.7856 1.0182 46.2294 0 51.5494 0C52.7131 2.33587 53.2831 3.62958 53.2831 6.20502C53.2831 8.16955 52.9744 10.1221 52.3687 11.9788C55.6344 15.8599 57 20.6395 57 25.6586ZM49.3644 31.7079C49.3644 26.4492 46.1938 21.8134 40.6362 21.8134C38.3919 21.8134 36.2425 22.2207 33.9863 22.5321C32.2169 22.8077 30.4475 22.9155 28.6306 22.9155C26.8256 22.9155 25.0562 22.8077 23.275 22.5321C21.0544 22.2207 18.8813 21.8134 16.625 21.8134C11.0675 21.8134 7.89687 26.4492 7.89687 31.7079C7.89687 42.2253 17.4444 43.8424 25.7569 43.8424H31.4806C39.8288 43.8424 49.3644 42.2373 49.3644 31.7079ZM39.5556 25.1076C36.4919 25.1076 35.1975 29.2043 35.1975 31.7079C35.1975 34.2115 36.4919 38.3082 39.5556 38.3082C42.6194 38.3082 43.9137 34.2115 43.9137 31.7079C43.9137 29.2043 42.6194 25.1076 39.5556 25.1076Z" fill="white"/>
</svg>
