<svg width="40" height="40" viewBox="0 0 40 40" fill="none" xmlns="http://www.w3.org/2000/svg">
<path d="M39.672 20.6575C39.2417 19.0406 38.4043 17.5523 37.2396 16.3467C38.2213 13.6399 37.9379 10.6298 36.4743 8.14665C34.2146 4.37052 29.7621 2.48631 25.4668 3.49397C23.073 0.710064 19.3523 -0.541791 15.763 0.21909C12.1711 0.977401 9.27751 3.6302 8.22108 7.13643C5.3455 7.64026 2.83324 9.37794 1.35423 11.8919C-0.872018 15.6732 -0.312879 20.4724 2.73275 23.6368C1.75362 26.3461 2.03447 29.3562 3.49803 31.8368C5.75004 35.6309 10.2103 37.5203 14.5056 36.4844C16.889 39.2683 20.6097 40.5381 24.2016 39.7875C27.7987 39.0369 30.6948 36.3892 31.759 32.8856C34.6372 32.3843 37.1494 30.6415 38.6284 28.1301C39.9709 25.8834 40.3471 23.1869 39.672 20.6575ZM31.8492 30.1505V20.2205C31.8492 19.7964 31.7513 19.4185 31.3931 19.2283L22.2588 14.0795L25.557 12.2107L33.287 16.596C35.0314 17.5728 36.3069 19.218 36.8196 21.151C37.3349 23.0455 37.0644 25.0711 36.0595 26.7651C35.2556 28.1481 34.0291 29.2328 32.5629 29.8652C32.331 29.9654 32.0888 30.0606 31.8492 30.1505ZM8.13347 9.86121V19.7655C8.13347 20.1665 8.20819 20.5804 8.57923 20.7578L17.7136 25.9066L14.4154 27.7753L6.65188 23.3823C4.90747 22.4029 3.63201 20.7578 3.11668 18.8247C2.60134 16.9328 2.87447 14.9046 3.87422 13.2158C4.56219 12.0462 5.55164 11.0925 6.72918 10.4473C7.19813 10.1902 7.62844 10.018 8.13347 9.86121ZM26.1599 9.89977C25.8069 9.69926 25.3817 9.69926 25.0287 9.89977L15.7682 15.172V11.347L23.6399 6.96163C27.2679 4.90262 31.8801 6.11592 34.0162 9.69412C34.7686 10.9794 35.1087 12.4523 35.0005 13.9201C34.9773 14.2234 34.9386 14.5473 34.8897 14.8455L26.1599 9.89977ZM19.9862 15.4367L24.2068 17.8248V22.223L19.9862 24.5493L15.7759 22.1613V17.7862L19.9862 15.4367ZM14.0779 9.68641C13.712 9.87149 13.5934 10.3265 13.5934 10.6812V20.9043L10.2695 19.0818V10.5167C10.2721 10.4524 10.2721 10.3985 10.2695 10.3368C10.3005 7.41405 12.0191 4.76381 14.6834 3.54024C17.0848 2.43233 19.8728 2.66111 22.0501 4.0929C22.3541 4.29341 22.6479 4.51961 22.9287 4.75096L14.0779 9.68641ZM5.09557 25.156L13.8125 30.0965C14.1655 30.2945 14.5906 30.2945 14.9436 30.0965L24.2145 24.8372V28.6699L16.3325 33.0244C12.7045 35.0834 8.09482 33.8701 5.95875 30.2919C5.13164 28.8832 4.80182 27.2458 5.01569 25.6366C5.03888 25.4747 5.06722 25.3153 5.09557 25.156ZM25.9048 30.3048C26.2707 30.1197 26.3789 29.7187 26.3789 29.3048V19.0818L29.6951 20.9043V29.4719C29.6899 29.531 29.6899 29.5876 29.6951 29.6493C29.6564 32.572 27.9455 35.2119 25.2864 36.4355C22.8334 37.564 19.9888 37.3095 17.7909 35.8032C17.5409 35.6335 17.291 35.4356 17.0436 35.2351L25.9048 30.3048Z" fill="white"/>
</svg>
