<svg width="44" height="44" viewBox="0 0 44 44" fill="none" xmlns="http://www.w3.org/2000/svg">
<g clip-path="url(#clip0_20_850)">
<path d="M3.1075 22C3.1075 29.4937 7.41125 35.9494 13.695 38.9785L4.78225 14.3481C3.74687 16.7393 3.1075 19.2913 3.1075 22ZM34.7531 21.043C34.7531 18.733 33.8759 17.0555 33.1581 15.862C32.2011 14.267 31.3252 12.9924 31.3252 11.3988C31.3252 9.64563 32.681 8.05062 34.5152 8.05062H34.7545C31.405 4.94175 26.9417 3.1075 22 3.1075C18.8734 3.13518 15.801 3.92676 13.0503 5.41331C10.2996 6.89986 7.95401 9.03631 6.21775 11.6366H7.414C9.40775 11.6366 12.4355 11.3974 12.4355 11.3974C13.4722 11.3176 13.552 12.8315 12.595 12.9924C12.595 12.9924 11.5582 13.1519 10.4431 13.1519L17.2989 33.5569L21.4431 21.2011L18.4937 13.1505L16.5 12.9937C15.4633 12.914 15.6227 11.3988 16.5798 11.3988C16.5798 11.3988 19.6873 11.638 21.5215 11.638C23.5153 11.638 26.543 11.3988 26.543 11.3988C27.5798 11.319 27.6595 12.8329 26.7025 12.9937C26.7025 12.9937 25.6657 13.1532 24.5506 13.1532L31.405 33.4813L33.33 27.1838C34.1275 24.5534 34.7641 22.7205 34.7641 21.0457L34.7531 21.043ZM22.319 23.6734L16.6595 40.095C18.3329 40.5735 20.1658 40.8925 22 40.8925C24.2316 40.8925 26.3037 40.48 28.2975 39.8558C28.2178 39.776 28.2178 39.6963 28.138 39.6165L22.319 23.6734ZM38.5798 12.9937L38.7393 14.9188C38.7393 16.8438 38.4202 18.9846 37.3051 21.6947L31.5659 38.3542C37.1456 35.0859 40.9709 29.0276 40.9709 22.0138C40.8911 18.7454 40.0139 15.7163 38.5784 13.0075L38.5798 12.9937ZM22 0C9.8835 0 0 9.8835 0 22C0 34.1165 9.8835 44 22 44C34.1165 44 44 34.1165 44 22C44 9.8835 34.1165 0 22 0ZM22 43.043C10.4417 43.043 1.03675 33.638 1.03675 22C1.04548 16.4429 3.2569 11.1159 7.18638 7.18638C11.1159 3.2569 16.4429 1.04548 22 1.03675C27.5571 1.04548 32.8841 3.2569 36.8136 7.18638C40.7431 11.1159 42.9545 16.4429 42.9632 22C42.9632 33.638 33.5583 43.043 22 43.043Z" fill="white"/>
</g>
<defs>
<clipPath id="clip0_20_850">
<rect width="44" height="44" fill="white"/>
</clipPath>
</defs>
</svg>
