<svg width="150" height="97" viewBox="0 0 150 97" fill="none" xmlns="http://www.w3.org/2000/svg">
<path opacity="0.2" fill-rule="evenodd" clip-rule="evenodd" d="M64.3735 7.44123C64.7966 6.89731 65.0485 6.21373 65.0485 5.4713C65.0485 3.69762 63.6106 2.25977 61.837 2.25977C60.0633 2.25977 58.6254 3.69762 58.6254 5.4713C58.6254 6.00521 58.7557 6.50869 58.9862 6.95169L5.9992 59.9387C5.4553 59.5158 4.77177 59.2639 4.02941 59.2639C2.25572 59.2639 0.817871 60.7017 0.817871 62.4754C0.817871 64.2491 2.25572 65.6869 4.02941 65.6869C5.61368 65.6869 6.93003 64.5398 7.19309 63.0308L143.003 89.8858C142.954 90.108 142.928 90.3389 142.928 90.5758C142.928 92.3495 144.366 93.7873 146.14 93.7873C147.913 93.7873 149.351 92.3495 149.351 90.5758C149.351 88.8021 147.913 87.3643 146.14 87.3643C145.605 87.3643 145.101 87.4948 144.658 87.7257L64.3735 7.44123ZM59.4516 7.62173L6.56682 60.5065C6.94036 60.9873 7.1803 61.5769 7.23092 62.2198L143.276 89.1213C143.455 88.7689 143.698 88.4539 143.988 88.1914L63.8057 8.00883C63.262 8.43129 62.5788 8.68284 61.837 8.68284C60.8904 8.68284 60.0394 8.27329 59.4516 7.62173Z" fill="#444F00"/>
<path opacity="0.5" fill-rule="evenodd" clip-rule="evenodd" d="M8.06406 5.96753C8.55191 5.40428 8.84708 4.66959 8.84708 3.86595C8.84708 2.09227 7.40923 0.654419 5.63555 0.654419C3.86186 0.654419 2.42401 2.09227 2.42401 3.86595C2.42401 5.63964 3.86186 7.07749 5.63555 7.07749C6.31477 7.07749 6.94475 6.86663 7.46358 6.5068L24.9854 30.5564C24.4375 31.1324 24.1013 31.9117 24.1013 32.7694C24.1013 34.1173 24.9317 35.2713 26.1088 35.7476V84.9819C25.9776 84.9656 25.8439 84.9572 25.7083 84.9572C23.9346 84.9572 22.4968 86.395 22.4968 88.1687C22.4968 89.9424 23.9346 91.3802 25.7083 91.3802C27.1366 91.3802 28.3472 90.4478 28.7645 89.1584L96.4954 94.7101C96.8913 96.0349 98.1193 97.0005 99.5729 97.0005C101.347 97.0005 102.784 95.5627 102.784 93.789C102.784 92.8726 102.401 92.0458 101.785 91.4607L127.565 32.6394C127.854 32.7249 128.16 32.7708 128.477 32.7708C130.251 32.7708 131.688 31.333 131.688 29.5593C131.688 27.7856 130.251 26.3478 128.477 26.3478C126.813 26.3478 125.445 27.6125 125.282 29.2328L30.2539 31.4775C29.7567 30.3471 28.6269 29.5579 27.3128 29.5579C26.6864 29.5579 26.102 29.7372 25.6079 30.0473L8.06406 5.96753ZM26.9117 35.9561C27.0431 35.9725 27.177 35.9809 27.3128 35.9809C29.0865 35.9809 30.5243 34.5431 30.5243 32.7694C30.5243 32.6013 30.5114 32.4362 30.4865 32.2751L125.3 30.0354C125.444 31.005 126.022 31.8332 126.829 32.3167L101.121 90.9747C100.662 90.7215 100.134 90.5775 99.5729 90.5775C97.7992 90.5775 96.3613 92.0153 96.3613 93.789C96.3613 93.824 96.3619 93.8589 96.363 93.8937L28.9139 88.365C28.9178 88.3001 28.9198 88.2346 28.9198 88.1687C28.9198 86.8205 28.0891 85.6664 26.9117 85.1902V35.9561Z" fill="#444F00"/>
</svg>
