<svg width="48" height="48" viewBox="0 0 48 48" fill="none" xmlns="http://www.w3.org/2000/svg">
<rect x="0.363636" y="0.363636" width="47.2727" height="47.2727" rx="11.2727" fill="url(#paint0_linear_0_1)" stroke="#B8D500" stroke-width="0.727273"/>
<path d="M20.9712 31.2429C20.9225 31.4366 19.7037 36.0004 13 36.0004C12.7348 36.0004 12.4804 35.895 12.2929 35.7075C12.1053 35.52 12 35.2656 12 35.0004C12 28.2966 16.5637 27.0779 16.7575 27.0291C17.0149 26.9648 17.2873 27.0054 17.5148 27.1419C17.7424 27.2785 17.9063 27.4998 17.9706 27.7573C18.0349 28.0147 17.9943 28.2871 17.8578 28.5146C17.7212 28.7421 17.4999 28.9061 17.2425 28.9704C17.13 29.0016 14.44 29.7879 14.0475 33.9529C18.2125 33.5604 19 30.8754 19.0325 30.7504C19.0988 30.4933 19.2645 30.2731 19.4932 30.1382C19.7219 30.0032 19.9948 29.9647 20.2519 30.031C20.509 30.0973 20.7292 30.263 20.8641 30.4917C20.999 30.7204 21.0375 30.9933 20.9712 31.2504V31.2429ZM32.5962 22.8179L32 23.4141V30.7054C32.0015 30.969 31.9505 31.2304 31.8501 31.4741C31.7497 31.7179 31.6018 31.9393 31.415 32.1254L27.125 36.4129C26.94 36.5992 26.7199 36.747 26.4775 36.8479C26.2351 36.9487 25.9751 37.0005 25.7125 37.0004C25.4958 37.0003 25.2805 36.9653 25.075 36.8966C24.7221 36.7799 24.4089 36.5668 24.1708 36.2814C23.9327 35.996 23.7791 35.6497 23.7275 35.2816L23.0562 30.4704L17.53 24.9441L12.7212 24.2729C12.3527 24.2212 12.0058 24.0677 11.7197 23.8296C11.4337 23.5916 11.2197 23.2784 11.1019 22.9254C10.9841 22.5723 10.9671 22.1934 11.0529 21.8312C11.1387 21.4691 11.3238 21.1381 11.5875 20.8754L15.875 16.5854C16.0611 16.3986 16.2825 16.2507 16.5262 16.1503C16.77 16.0499 17.0313 15.9989 17.295 16.0004H24.5862L25.1825 15.4041C28.5175 12.0704 32.535 11.9266 34.1087 12.0204C34.5963 12.05 35.0562 12.2571 35.4016 12.6025C35.747 12.9479 35.9541 13.4078 35.9837 13.8954C36.075 15.4641 35.9312 19.4829 32.5975 22.8179H32.5962ZM22.5862 18.0004H17.295L13 22.2929L17.6437 22.9404L22.5862 18.0004ZM30 25.4141L25.0587 30.3554L25.7087 35.0004L30 30.7054V25.4141Z" fill="black"/>
<defs>
<linearGradient id="paint0_linear_0_1" x1="24" y1="0" x2="24" y2="48" gradientUnits="userSpaceOnUse">
<stop stop-color="#DBFF0A"/>
<stop offset="1" stop-color="#DBFF0A" stop-opacity="0"/>
</linearGradient>
</defs>
</svg>
