<svg width="172" height="44" viewBox="0 0 172 44" fill="none" xmlns="http://www.w3.org/2000/svg">
<path d="M64.1042 16.5536C65.5051 16.5536 66.7813 16.8942 67.9328 17.5755C69.0842 18.2568 70.0006 19.1731 70.6818 20.3246C71.3631 21.4664 71.7037 22.733 71.7037 24.1243C71.7037 25.1702 71.507 26.1537 71.1136 27.0749C70.7202 27.996 70.1733 28.8068 69.4728 29.5073C68.782 30.1982 67.9759 30.7403 67.0548 31.1337C66.1432 31.5271 65.1597 31.7238 64.1042 31.7238C63.2023 31.7238 62.401 31.5223 61.7006 31.1193C61.0097 30.7067 60.4292 30.1742 59.959 29.5217V31.3496H56.4471V9.76008H59.959V18.7557C60.4292 18.1032 61.0097 17.5755 61.7006 17.1725C62.401 16.7599 63.2023 16.5536 64.1042 16.5536ZM64.061 28.3271C64.8095 28.3271 65.4859 28.14 66.0905 27.7657C66.7046 27.3819 67.1939 26.8734 67.5585 26.2401C67.9232 25.6068 68.1055 24.9015 68.1055 24.1243C68.1055 23.3567 67.9232 22.6562 67.5585 22.0229C67.1939 21.38 66.7046 20.8715 66.0905 20.4973C65.4764 20.1231 64.7999 19.9359 64.061 19.9359C63.3318 19.9359 62.6793 20.1279 62.1036 20.5117C61.5279 20.8859 61.0769 21.3944 60.7506 22.0373C60.4244 22.6706 60.2613 23.3663 60.2613 24.1243C60.2613 24.9015 60.4244 25.6116 60.7506 26.2545C61.0769 26.8878 61.5279 27.3915 62.1036 27.7657C62.6793 28.14 63.3318 28.3271 64.061 28.3271ZM73.7356 31.3496V9.76008H77.2475V31.3496H73.7356ZM86.8153 31.7238C85.4911 31.7238 84.2821 31.3832 83.1882 30.7019C82.104 30.0207 81.2356 29.1043 80.5831 27.9529C79.9402 26.8014 79.6188 25.53 79.6188 24.1387C79.6188 23.0928 79.8059 22.1141 80.1801 21.2025C80.5543 20.2814 81.0677 19.4754 81.7201 18.7845C82.3822 18.084 83.1499 17.5371 84.023 17.1437C84.8962 16.7503 85.827 16.5536 86.8153 16.5536C87.9379 16.5536 88.9646 16.7935 89.8954 17.2732C90.8357 17.7434 91.6321 18.3911 92.2846 19.2163C92.9371 20.0415 93.4121 20.9818 93.7095 22.0373C94.007 23.0928 94.0742 24.1963 93.911 25.3477H83.3897C83.5241 25.8851 83.7448 26.3696 84.0518 26.8014C84.3589 27.2236 84.7475 27.5642 85.2177 27.8233C85.6878 28.0728 86.2204 28.2023 86.8153 28.2119C87.4294 28.2215 87.9859 28.0776 88.4849 27.7801C88.9934 27.4731 89.4156 27.0605 89.7515 26.5423L93.3353 27.3771C92.75 28.6533 91.8768 29.6992 90.7158 30.5148C89.5547 31.3208 88.2546 31.7238 86.8153 31.7238ZM83.2746 22.7138H90.356C90.2504 22.1381 90.0249 21.6199 89.6795 21.1594C89.3437 20.6892 88.9263 20.315 88.4273 20.0367C87.9283 19.7584 87.391 19.6193 86.8153 19.6193C86.2396 19.6193 85.707 19.7584 85.2177 20.0367C84.7283 20.3054 84.3109 20.6748 83.9655 21.145C83.6296 21.6055 83.3993 22.1285 83.2746 22.7138ZM109.437 22.2532V31.3496H105.925V23.1744C105.925 22.6082 105.786 22.0949 105.508 21.6343C105.229 21.1641 104.855 20.7947 104.385 20.5261C103.924 20.2478 103.411 20.1087 102.845 20.1087C102.279 20.1087 101.761 20.2478 101.29 20.5261C100.83 20.7947 100.46 21.1641 100.182 21.6343C99.9134 22.0949 99.7791 22.6082 99.7791 23.1744V31.3496H96.2672L96.2528 16.9566H99.7647L99.7791 18.2376C100.268 17.7194 100.854 17.3116 101.535 17.0142C102.216 16.7071 102.95 16.5536 103.737 16.5536C104.783 16.5536 105.738 16.8127 106.601 17.3308C107.465 17.8394 108.151 18.5254 108.66 19.389C109.178 20.243 109.437 21.1977 109.437 22.2532ZM122.904 9.76008H126.416V31.3496H122.904V29.5505C122.444 30.1934 121.863 30.7163 121.163 31.1193C120.462 31.5223 119.652 31.7238 118.73 31.7238C117.685 31.7238 116.706 31.5271 115.794 31.1337C114.883 30.7403 114.077 30.1982 113.376 29.5073C112.685 28.8068 112.143 28.0008 111.75 27.0893C111.356 26.1777 111.16 25.199 111.16 24.1531C111.16 23.1072 111.356 22.1285 111.75 21.2169C112.143 20.3054 112.685 19.5042 113.376 18.8133C114.077 18.1128 114.883 17.5659 115.794 17.1725C116.706 16.7791 117.685 16.5824 118.73 16.5824C119.652 16.5824 120.462 16.7839 121.163 17.1869C121.863 17.5803 122.444 18.1032 122.904 18.7557V9.76008ZM118.774 28.3415C119.522 28.3415 120.184 28.1544 120.76 27.7801C121.336 27.4059 121.787 26.9022 122.113 26.2689C122.439 25.626 122.602 24.9207 122.602 24.1531C122.602 23.3759 122.439 22.6706 122.113 22.0373C121.787 21.3944 121.331 20.8859 120.745 20.5117C120.17 20.1374 119.512 19.9503 118.774 19.9503C118.035 19.9503 117.358 20.1422 116.744 20.5261C116.14 20.9003 115.655 21.404 115.291 22.0373C114.935 22.6706 114.758 23.3759 114.758 24.1531C114.758 24.9303 114.94 25.6356 115.305 26.2689C115.67 26.9022 116.154 27.4059 116.759 27.7801C117.373 28.1544 118.044 28.3415 118.774 28.3415ZM135.982 31.7238C134.658 31.7238 133.449 31.3832 132.355 30.7019C131.271 30.0207 130.402 29.1091 129.75 27.9672C129.107 26.8158 128.786 25.5444 128.786 24.1531C128.786 23.0976 128.973 22.1141 129.347 21.2025C129.721 20.2814 130.234 19.4754 130.887 18.7845C131.549 18.084 132.317 17.5371 133.19 17.1437C134.063 16.7503 134.994 16.5536 135.982 16.5536C137.306 16.5536 138.51 16.8942 139.595 17.5755C140.689 18.2568 141.557 19.1731 142.2 20.3246C142.852 21.476 143.179 22.7522 143.179 24.1531C143.179 25.199 142.991 26.1777 142.617 27.0893C142.243 28.0008 141.725 28.8068 141.063 29.5073C140.41 30.1982 139.647 30.7403 138.774 31.1337C137.911 31.5271 136.98 31.7238 135.982 31.7238ZM135.982 28.2119C136.683 28.2119 137.311 28.0248 137.868 27.6506C138.424 27.2764 138.861 26.7822 139.177 26.1681C139.504 25.554 139.667 24.8823 139.667 24.1531C139.667 23.4047 139.499 22.7234 139.163 22.1093C138.837 21.4856 138.39 20.9914 137.824 20.6268C137.268 20.2526 136.654 20.0655 135.982 20.0655C135.291 20.0655 134.667 20.2526 134.111 20.6268C133.554 21.001 133.113 21.5 132.787 22.1237C132.461 22.7474 132.297 23.4239 132.297 24.1531C132.297 24.9111 132.465 25.5972 132.801 26.2113C133.137 26.8254 133.583 27.3148 134.14 27.6794C134.706 28.0344 135.32 28.2119 135.982 28.2119ZM145.434 31.3496L145.42 16.9566H148.931L148.946 18.2376C149.435 17.7194 150.021 17.3116 150.702 17.0142C151.383 16.7071 152.117 16.5536 152.904 16.5536C153.432 16.5536 153.959 16.6303 154.487 16.7839L153.105 20.3246C152.741 20.1806 152.376 20.1087 152.012 20.1087C151.445 20.1087 150.927 20.2478 150.457 20.5261C149.997 20.7947 149.627 21.1641 149.349 21.6343C149.08 22.0949 148.946 22.6082 148.946 23.1744V31.3496H145.434ZM166.28 16.9566H169.791V31.3496H166.28L166.121 29.5649C165.728 30.2078 165.205 30.7307 164.552 31.1337C163.91 31.5271 163.147 31.7238 162.264 31.7238C161.199 31.7238 160.201 31.5223 159.27 31.1193C158.339 30.7163 157.519 30.1598 156.809 29.4497C156.109 28.7397 155.557 27.9193 155.154 26.9885C154.76 26.0578 154.564 25.0599 154.564 23.9948C154.564 22.9681 154.751 22.0037 155.125 21.1018C155.509 20.1998 156.041 19.4082 156.723 18.7269C157.404 18.0457 158.191 17.5131 159.083 17.1293C159.975 16.7455 160.935 16.5536 161.962 16.5536C162.912 16.5536 163.761 16.7647 164.509 17.1869C165.267 17.6091 165.91 18.1464 166.438 18.7989L166.28 16.9566ZM162.178 28.3415C162.926 28.3415 163.588 28.1544 164.164 27.7801C164.74 27.4059 165.191 26.9022 165.517 26.2689C165.843 25.626 166.006 24.9207 166.006 24.1531C166.006 23.3759 165.843 22.6706 165.517 22.0373C165.191 21.3944 164.735 20.8859 164.149 20.5117C163.574 20.1374 162.916 19.9503 162.178 19.9503C161.439 19.9503 160.762 20.1422 160.148 20.5261C159.544 20.9003 159.059 21.404 158.694 22.0373C158.339 22.6706 158.162 23.3759 158.162 24.1531C158.162 24.9303 158.344 25.6356 158.709 26.2689C159.073 26.9022 159.558 27.4059 160.163 27.7801C160.777 28.1544 161.448 28.3415 162.178 28.3415Z" fill="#090A00"/>
<path fill-rule="evenodd" clip-rule="evenodd" d="M0 11.2318C0 5.02876 5.02852 0.000244141 11.2315 0.000244141H18.9532C20.1162 0.000244141 21.0591 0.943091 21.0591 2.10615V19.3206C21.0591 20.4837 20.1162 21.4265 18.9532 21.4265H11.5225C11.3377 21.4265 11.1878 21.5764 11.1878 21.7612C11.1878 21.9461 11.3377 22.0959 11.5225 22.0959H18.9532C20.1162 22.0959 21.0591 23.0388 21.0591 24.2018V41.4163C21.0591 42.5794 20.1162 43.5222 18.9532 43.5222H11.2315C5.02852 43.5222 0 38.4937 0 32.2907V24.2018C0 23.0388 0.942847 22.0959 2.10591 22.0959H9.53691C9.72177 22.0959 9.87162 21.9461 9.87162 21.7612C9.87162 21.5764 9.72177 21.4265 9.53691 21.4265H2.10591C0.942847 21.4265 0 20.4837 0 19.3206V11.2318Z" fill="#090A00"/>
<path fill-rule="evenodd" clip-rule="evenodd" d="M21.7607 2.10615C21.7607 0.94309 22.7036 0.000244141 23.8666 0.000244141H40.7139C41.877 0.000244141 42.8198 0.943091 42.8198 2.10615V7.38713C42.8198 15.1409 36.5342 21.4265 28.7804 21.4265H28.0183C27.8334 21.4265 27.6834 21.5764 27.6834 21.7614C27.6834 21.9463 27.8334 22.0962 28.0183 22.0962H28.7802C36.5339 22.0962 42.8196 28.3818 42.8196 36.1356V41.4166C42.8196 42.5796 41.8767 43.5225 40.7137 43.5225H23.8664C22.7033 43.5225 21.7605 42.5796 21.7605 41.4166V24.2021C21.7605 23.039 22.7033 22.0962 23.8664 22.0962H25.3743C25.5592 22.0962 25.7091 21.9463 25.7091 21.7614C25.7091 21.5764 25.5592 21.4265 25.3743 21.4265H23.8666C22.7036 21.4265 21.7607 20.4837 21.7607 19.3206V2.10615Z" fill="#090A00"/>
</svg>
