<svg width="48" height="48" viewBox="0 0 48 48" fill="none" xmlns="http://www.w3.org/2000/svg">
<rect width="48" height="48" rx="11.6364" fill="#1D1E16"/>
<g clip-path="url(#clip0_0_1)">
<path d="M36.0046 16.5548C35.1196 16.9457 34.1728 17.2134 33.1781 17.3301C34.1934 16.7193 34.9757 15.7523 35.346 14.6062C34.3921 15.1687 33.3426 15.5802 32.2176 15.8001C31.319 14.8396 30.0356 14.2424 28.6223 14.2424C25.8984 14.2424 23.6962 16.4517 23.6962 19.1685C23.6962 19.5529 23.7375 19.9302 23.8265 20.2935C19.7306 20.0877 16.101 18.1256 13.672 15.1476C13.2468 15.8751 13.0064 16.7188 13.0064 17.6245C13.0064 19.3331 13.8778 20.8424 15.195 21.7274C14.3854 21.6998 13.6307 21.4804 12.9651 21.1101C12.9651 21.1307 12.9651 21.1513 12.9651 21.172C12.9651 23.5598 14.6667 25.5492 16.9171 26.002C16.5056 26.1117 16.0664 26.1735 15.6206 26.1735C15.3051 26.1735 14.9962 26.1393 14.6943 26.0845C15.3187 28.0401 17.1435 29.467 19.2979 29.5082C17.61 30.8324 15.4903 31.6148 13.1779 31.6148C12.78 31.6148 12.389 31.5942 12.0046 31.5463C14.1867 32.946 16.7732 33.7626 19.5585 33.7626C28.6218 33.7626 33.5756 26.2565 33.5756 19.7456C33.5756 19.5327 33.5685 19.3204 33.562 19.1076C34.5089 18.4073 35.346 17.5424 36.0046 16.5548Z" fill="white"/>
</g>
<defs>
<clipPath id="clip0_0_1">
<rect width="24" height="24" fill="white" transform="translate(12 12)"/>
</clipPath>
</defs>
</svg>
