<svg width="94" height="29" viewBox="0 0 94 29" fill="none" xmlns="http://www.w3.org/2000/svg">
<g clip-path="url(#clip0_20_382)">
<path fill-rule="evenodd" clip-rule="evenodd" d="M58.5098 22.4375C53.0962 26.4374 45.2495 28.5715 38.4936 28.5715C29.0208 28.5715 20.4929 25.0594 14.0411 19.218C13.5343 18.7587 13.9884 18.1327 14.5967 18.4904C21.5594 22.5513 30.1684 24.9943 39.0614 24.9943C45.0589 24.9943 51.6566 23.7505 57.7231 21.1692C58.6396 20.779 59.406 21.7708 58.5098 22.4375Z" fill="#E6E6E6"/>
<path fill-rule="evenodd" clip-rule="evenodd" d="M60.7612 19.857C60.0718 18.9708 56.187 19.4383 54.4433 19.6456C53.9121 19.7106 53.831 19.2472 54.3095 18.9139C57.4036 16.731 62.4806 17.3611 63.0726 18.0928C63.6647 18.8285 62.9185 23.93 60.011 26.365C59.5649 26.7389 59.1392 26.5397 59.3379 26.0438C59.9907 24.4097 61.4546 20.7472 60.7612 19.857Z" fill="#E6E6E6"/>
<path fill-rule="evenodd" clip-rule="evenodd" d="M54.5646 3.50296V1.38106C54.5646 1.05992 54.8079 0.844482 55.0999 0.844482H64.5767C64.8809 0.844482 65.1242 1.06399 65.1242 1.38106V3.19809C65.1201 3.50296 64.8647 3.90133 64.4105 4.5314L59.4997 11.5597C61.3245 11.515 63.2507 11.7873 64.9052 12.7223C65.2783 12.9337 65.3797 13.2426 65.408 13.5475V15.8116C65.408 16.1206 65.0674 16.4824 64.7106 16.2954C61.7949 14.7629 57.9223 14.5962 54.6984 16.3116C54.37 16.4905 54.0253 16.1328 54.0253 15.8238V13.6735C54.0253 13.328 54.0293 12.7385 54.374 12.2142L60.0634 4.03547H55.112C54.8079 4.03547 54.5646 3.82003 54.5646 3.50296Z" fill="#E6E6E6"/>
<path fill-rule="evenodd" clip-rule="evenodd" d="M19.9942 16.7424H17.111C16.8353 16.7221 16.6163 16.5148 16.596 16.2506V1.41753C16.596 1.12079 16.8434 0.885024 17.1516 0.885024H19.8401C20.1199 0.897211 20.343 1.11266 20.3632 1.38095V3.31993H20.416C21.1175 1.44599 22.4354 0.572021 24.2116 0.572021C26.0161 0.572021 27.1434 1.44599 27.9545 3.31993C28.6519 1.44599 30.2375 0.572021 31.9366 0.572021C33.145 0.572021 34.467 1.07201 35.274 2.19394C36.1864 3.44188 35.9999 5.25485 35.9999 6.84425L35.9958 16.2058C35.9958 16.5026 35.7484 16.7424 35.4403 16.7424H32.5611C32.2732 16.7221 32.042 16.4904 32.042 16.2058V8.34422C32.042 7.71821 32.0988 6.15727 31.9609 5.56379C31.746 4.56787 31.1012 4.28739 30.2659 4.28739C29.5684 4.28739 28.8385 4.75486 28.5425 5.50281C28.2464 6.25077 28.2748 7.50277 28.2748 8.34422V16.2058C28.2748 16.5026 28.0275 16.7424 27.7193 16.7424H24.8401C24.5481 16.7221 24.3211 16.4904 24.3211 16.2058L24.317 8.34422C24.317 6.68978 24.5887 4.25487 22.5409 4.25487C20.4687 4.25487 20.5498 6.6288 20.5498 8.34422V16.2058C20.5498 16.5026 20.3024 16.7424 19.9942 16.7424Z" fill="#E6E6E6"/>
<path fill-rule="evenodd" clip-rule="evenodd" d="M73.2827 0.572021C77.5608 0.572021 79.8763 4.25487 79.8763 8.9377C79.8763 13.462 77.3175 17.0513 73.2827 17.0513C69.0815 17.0513 66.7944 13.3685 66.7944 8.77917C66.7944 4.16138 69.1099 0.572021 73.2827 0.572021ZM73.307 3.60041C71.1821 3.60041 71.0483 6.50279 71.0483 8.3117C71.0483 10.1247 71.0199 13.9945 73.2827 13.9945C75.517 13.9945 75.6225 10.8726 75.6225 8.97022C75.6225 7.71821 75.5698 6.22231 75.1926 5.03534C74.8682 4.00285 74.2235 3.60041 73.307 3.60041Z" fill="#E6E6E6"/>
<path fill-rule="evenodd" clip-rule="evenodd" d="M85.4237 16.7424H82.5526C82.2647 16.7221 82.0336 16.4904 82.0336 16.2058L82.0295 1.36875C82.0539 1.0964 82.2931 0.885024 82.5851 0.885024H85.2574C85.5088 0.897211 85.7157 1.06795 85.7724 1.29965V3.56789H85.8252C86.6321 1.53948 87.7635 0.572021 89.7546 0.572021C91.0482 0.572021 92.3093 1.03949 93.1203 2.31995C93.8746 3.50692 93.8746 5.50281 93.8746 6.93774V16.2749C93.8422 16.5351 93.6029 16.7424 93.3191 16.7424H90.4277C90.1641 16.7221 89.9452 16.527 89.9168 16.2749V8.2182C89.9168 6.59629 90.1033 4.22235 88.1122 4.22235C87.4107 4.22235 86.7659 4.69389 86.4456 5.40932C86.0401 6.3158 85.9874 7.21822 85.9874 8.2182V16.2058C85.9833 16.5026 85.7319 16.7424 85.4237 16.7424Z" fill="#E6E6E6"/>
<path fill-rule="evenodd" clip-rule="evenodd" d="M47.0096 9.65689C47.0096 10.7829 47.0379 11.7219 46.4702 12.7219C46.012 13.5349 45.2821 14.0348 44.4751 14.0348C43.368 14.0348 42.7192 13.1893 42.7192 11.9414C42.7192 9.47803 44.9212 9.03089 47.0096 9.03089V9.65689ZM49.9171 16.7015C49.7265 16.8722 49.4508 16.8844 49.2358 16.7706C48.2788 15.9738 48.1044 15.6039 47.5813 14.8438C45.9998 16.4616 44.8766 16.9454 42.8287 16.9454C40.3997 16.9454 38.514 15.4454 38.514 12.4414C38.514 10.0959 39.7792 8.49838 41.5878 7.71791C43.1531 7.02686 45.3388 6.90492 47.0096 6.71387V6.33989C47.0096 5.65291 47.0623 4.83992 46.6568 4.24644C46.308 3.71393 45.6349 3.49442 45.0388 3.49442C43.9398 3.49442 42.9625 4.05945 42.7233 5.23015C42.6746 5.49031 42.484 5.74641 42.2204 5.7586L39.4264 5.45779C39.1912 5.40495 38.9277 5.21389 38.9966 4.85212C39.6373 1.45381 42.703 0.429443 45.4443 0.429443C46.8474 0.429443 48.6803 0.80342 49.7873 1.86844C51.1904 3.18142 51.0566 4.93341 51.0566 6.83988V11.3438C51.0566 12.6975 51.6162 13.291 52.1434 14.0227C52.3259 14.2828 52.3664 14.5958 52.1312 14.7909C51.5432 15.2828 50.497 16.1974 49.9211 16.7096L49.9171 16.7015Z" fill="#E6E6E6"/>
<path fill-rule="evenodd" clip-rule="evenodd" d="M9.21219 9.65689C9.21219 10.7829 9.24058 11.7219 8.67286 12.7219C8.21463 13.5349 7.48876 14.0348 6.67773 14.0348C5.57068 14.0348 4.92591 13.1893 4.92591 11.9414C4.92591 9.47803 7.12785 9.03089 9.21219 9.03089V9.65689ZM12.1197 16.7015C11.9291 16.8722 11.6534 16.8844 11.4385 16.7706C10.4815 15.9738 10.3111 15.6039 9.78397 14.8438C8.20246 16.4616 7.08325 16.9454 5.03134 16.9454C2.60637 16.9454 0.716675 15.4454 0.716675 12.4414C0.716675 10.0959 1.98593 8.49838 3.79047 7.71791C5.35575 7.02686 7.54147 6.90492 9.21219 6.71387V6.33989C9.21219 5.65291 9.26491 4.83992 8.86345 4.24644C8.51065 3.71393 7.8375 3.49442 7.24545 3.49442C6.14651 3.49442 5.16516 4.05945 4.92591 5.23015C4.87725 5.49031 4.68666 5.74641 4.42713 5.7586L1.62908 5.45779C1.39388 5.40495 1.13435 5.21389 1.19924 4.85212C1.844 1.45381 4.90563 0.429443 7.64691 0.429443C9.04999 0.429443 10.8829 0.80342 11.99 1.86844C13.393 3.18142 13.2592 4.93341 13.2592 6.83988V11.3438C13.2592 12.6975 13.8188 13.291 14.346 14.0227C14.5325 14.2828 14.5731 14.5958 14.3379 14.7909C13.7499 15.2828 12.7037 16.1974 12.1278 16.7096L12.1197 16.7015Z" fill="#E6E6E6"/>
</g>
<defs>
<clipPath id="clip0_20_382">
<rect width="93.1587" height="28.1417" fill="white" transform="translate(0.715698 0.429443)"/>
</clipPath>
</defs>
</svg>
