<svg width="172" height="25" viewBox="0 0 172 25" fill="none" xmlns="http://www.w3.org/2000/svg">
<path d="M23.99 12.4668C23.99 5.84585 29.4246 0.468418 36.2347 0.468418C43.0783 0.468418 48.5465 5.84585 48.5465 12.4668C48.5465 19.0542 43.1119 24.4988 36.2347 24.4988C29.4246 24.5324 23.99 19.0542 23.99 12.4668ZM42.6757 12.4668C42.6757 9.13952 39.7907 6.21555 36.2682 6.21555C32.7793 6.21555 29.8943 9.13952 29.8943 12.4668C29.8943 15.8277 32.7793 18.7517 36.2682 18.7517C39.7907 18.7853 42.6757 15.8613 42.6757 12.4668ZM147.578 12.6685C147.578 5.40893 153.448 0.502029 158.816 0.502029C162.473 0.502029 164.553 1.61112 165.962 3.76209L166.532 0.938946H172V24.0955H166.532L165.827 21.7093C164.217 23.4569 162.238 24.5324 158.816 24.5324C153.583 24.5324 147.578 19.8944 147.578 12.6685ZM166.263 12.6349C166.263 9.13952 163.378 6.24915 159.856 6.24915C156.333 6.24915 153.448 9.13952 153.448 12.6685V12.7021C153.448 15.9285 156.333 18.7853 159.822 18.7853C163.378 18.7853 166.263 15.8949 166.263 12.6349ZM140.868 3.62766V0.938946H134.897V24.0955H140.868V11.6266C140.868 7.86238 142.713 5.91306 145.934 5.91306C146.135 5.91306 146.336 5.91307 146.538 5.94667L147.645 0.36759C144.525 0.36759 142.277 1.44308 140.868 3.62766ZM80.7518 3.62766V0.938946H74.7804L74.8475 24.0955H80.8188L80.7853 11.6266C80.7853 7.86238 82.6304 5.91306 85.8174 5.91306C86.0187 5.91306 86.2199 5.91307 86.4212 5.94667L87.5283 0.36759C84.4084 0.36759 82.1607 1.44308 80.7518 3.62766ZM50.6264 15.1219V0.938946H56.5978V14.3825C56.5978 17.3401 58.2416 19.1214 61.1267 19.1214C64.3472 19.1214 66.1923 17.1721 66.1923 13.4079V0.938946H72.1637V24.0955H66.1923V21.4068C64.7833 23.5914 62.5021 24.6669 59.3487 24.6669C53.9811 24.6669 50.6264 20.7682 50.6264 15.1219ZM108.864 12.5004C108.864 6.01389 113.494 0.46842 120.841 0.502029C127.651 0.502029 132.448 5.98028 132.448 12.4332C132.448 13.0718 132.414 13.7103 132.314 14.3489L114.701 14.3153C115.372 17.1048 117.654 19.0878 121.109 19.0878C123.189 19.0878 125.437 18.3148 126.812 16.5671L130.905 19.8608C128.791 22.8184 125.101 24.566 121.176 24.566C114.198 24.4988 108.864 19.2894 108.864 12.5004ZM126.443 10.1142C126.108 7.76156 123.692 5.98028 120.807 5.94667C118.023 5.94667 115.809 7.59351 114.903 10.0806L126.443 10.1142ZM87.5618 19.0205L92.8623 16.231C93.7345 18.1467 95.5125 19.2558 97.995 19.2558C100.276 19.2558 101.182 18.5164 101.182 17.5081C101.182 13.7776 88.6018 16.0294 88.6018 7.52629C88.6018 2.82104 92.6945 0.333984 97.7937 0.333984C101.652 0.333984 105.073 2.04804 106.919 5.24089L101.652 8.03043C100.88 6.45081 99.404 5.57697 97.5589 5.57697C95.7473 5.57697 94.8751 6.21555 94.8751 7.29103C94.8751 10.9208 107.455 8.60178 107.455 17.2729C107.455 21.7765 103.799 24.4988 97.8944 24.4988C92.8287 24.4988 89.3398 22.852 87.5618 19.0205ZM0.238586 12.4668C0.238586 5.77863 5.67323 0.434812 12.4833 0.434812C16.6431 0.401203 20.5346 2.48495 22.8494 5.94667L17.7502 8.90426C16.5425 7.19021 14.5968 6.18194 12.4833 6.18194C8.99439 6.18194 6.10934 9.10591 6.10934 12.4668C6.10934 15.8277 8.99439 18.7517 12.4833 18.7517C14.6639 18.7517 16.7102 17.6426 17.8844 15.7605L22.95 18.7853C20.6688 22.3478 16.7102 24.4988 12.4833 24.4988C5.67323 24.5324 0.238586 19.0542 0.238586 12.4668Z" fill="#E6E6E6"/>
</svg>
