<svg width="100" height="33" viewBox="0 0 100 33" fill="none" xmlns="http://www.w3.org/2000/svg">
<g clip-path="url(#clip0_20_391)">
<path d="M16.6351 8.10115H13.06C11.9777 8.10115 11.1249 7.24486 11.1249 6.15802V2.56815C11.1249 1.51424 11.9777 0.625 13.06 0.625H16.6351C17.6847 0.625 18.5703 1.4813 18.5703 2.56815V6.15802C18.5703 7.24486 17.7175 8.10115 16.6351 8.10115Z" fill="#E6E6E6"/>
<path d="M7.35191 16.1701H3.35041C2.13685 16.1701 1.18567 15.182 1.18567 13.9964V9.94541C1.18567 8.75976 2.16964 7.77173 3.35041 7.77173H7.38471C8.59828 7.77173 9.54946 8.75976 9.54946 9.94541V13.9964C9.54946 15.215 8.56548 16.1701 7.35191 16.1701Z" fill="#E6E6E6"/>
<path d="M6.99127 24.568H4.53132C3.80974 24.568 3.21936 23.9752 3.21936 23.2506V20.7805C3.21936 20.056 3.80974 19.4631 4.53132 19.4631H6.99127C7.71284 19.4631 8.30322 20.056 8.30322 20.7805V23.2506C8.30322 23.9752 7.71284 24.568 6.99127 24.568Z" fill="#E6E6E6"/>
<path d="M13.5849 32.3744H10.6658C9.81303 32.3744 9.09143 31.6828 9.09143 30.7935V27.8623C9.09143 27.006 9.78022 26.2815 10.6658 26.2815H13.5849C14.4377 26.2815 15.1593 26.9731 15.1593 27.8623V30.7935C15.1593 31.6828 14.4705 32.3744 13.5849 32.3744Z" fill="#E6E6E6"/>
<path d="M24.2439 9.58334H22.2431C21.6527 9.58334 21.1608 9.08932 21.1608 8.4965V6.48747C21.1608 5.89465 21.6527 5.40063 22.2431 5.40063H24.2439C24.8343 5.40063 25.3263 5.89465 25.3263 6.48747V8.4965C25.3591 9.08932 24.8671 9.58334 24.2439 9.58334Z" fill="#E6E6E6"/>
<path d="M68.391 10.9333C69.047 10.9333 69.5389 10.4064 69.5389 9.78064C69.5389 9.12196 69.0142 8.62793 68.391 8.62793C67.735 8.62793 67.2102 9.15488 67.2102 9.78064C67.2102 10.4064 67.735 10.9333 68.391 10.9333Z" fill="#E6E6E6"/>
<path d="M25.9826 23.3828C25.8186 23.6462 25.5234 23.778 25.1954 23.778C25.0314 23.778 24.8019 23.745 24.6707 23.6462C24.4083 23.4816 24.2443 23.1522 24.2443 22.8229C24.2443 22.6582 24.2771 22.4935 24.3755 22.3618L27.065 18.1132L24.3755 13.8647C24.277 13.7329 24.2443 13.5353 24.2443 13.4036C24.2443 13.0742 24.4083 12.7449 24.7035 12.5802C24.8675 12.4814 25.0314 12.4485 25.1954 12.4485C25.5234 12.4485 25.8186 12.5802 26.0154 12.8437L28.213 16.3348L30.4433 12.8437C30.6073 12.5802 30.9353 12.4485 31.2633 12.4485C31.4273 12.4485 31.5913 12.4815 31.7553 12.5802C32.0505 12.7449 32.2145 13.0742 32.2145 13.4036C32.2145 13.5683 32.1817 13.7329 32.0833 13.8647L29.3937 18.1132L32.0833 22.3618C32.1817 22.4935 32.2145 22.6582 32.2145 22.8229C32.2145 23.1522 32.0505 23.5145 31.7881 23.6462C31.6241 23.7451 31.4273 23.778 31.2633 23.778C30.9353 23.778 30.6729 23.6462 30.4761 23.3828L28.2458 19.9246L25.9826 23.3828Z" fill="#E6E6E6"/>
<path d="M35.5924 13.7323C36.6092 12.8101 37.9868 12.2502 39.4627 12.2502C42.7098 12.2502 45.2682 14.8521 45.2682 18.0797C45.2682 21.2743 42.677 23.8761 39.4627 23.8761C37.9868 23.8761 36.6092 23.3163 35.5924 22.3941V27.3672C35.5924 27.8612 35.1332 28.2894 34.6412 28.2894C34.1821 28.2894 33.6901 27.8612 33.6901 27.3672V13.2712C33.6901 12.7772 34.1493 12.349 34.6412 12.349C35.166 12.349 35.5924 12.7772 35.5924 13.2712V13.7323ZM39.4299 14.1934C37.2652 14.1934 35.5596 15.906 35.5596 18.0797C35.5596 20.2533 37.2652 21.9659 39.4299 21.9659C41.5947 21.9659 43.3002 20.2533 43.3002 18.0797C43.333 15.906 41.6275 14.1934 39.4299 14.1934Z" fill="#E6E6E6"/>
<path d="M61.7003 17.027V22.8564C61.7003 23.3504 61.2411 23.7786 60.7491 23.7786C60.2244 23.7786 59.798 23.3504 59.798 22.8564V13.2725C59.798 12.7784 60.2572 12.3503 60.7491 12.3503C61.2083 12.3503 61.6675 12.7455 61.7003 13.2395C62.4875 12.6467 63.5043 12.2844 64.5866 12.2844C65.177 12.2844 65.6362 12.7455 65.6362 13.2395C65.6362 13.7665 65.177 14.2276 64.5866 14.2276C63.1107 14.2605 61.7003 14.7874 61.7003 17.027Z" fill="#E6E6E6"/>
<path d="M68.3917 12.3499C67.8669 12.3499 67.4406 12.778 67.4406 13.272V22.8889C67.4406 23.3829 67.8997 23.8111 68.3917 23.8111C68.8509 23.8111 69.3429 23.3829 69.3429 22.8889V13.272C69.3429 12.778 68.8837 12.3499 68.3917 12.3499Z" fill="#E6E6E6"/>
<path d="M80.5924 13.2725C80.5924 12.7784 81.0516 12.3503 81.5436 12.3503C82.0027 12.3503 82.4947 12.7784 82.4947 13.2725V22.8894C82.4947 23.3834 82.0355 23.8115 81.5436 23.8115C81.0188 23.8115 80.5924 23.3834 80.5924 22.8894V22.4283C79.5428 23.3504 78.198 23.9103 76.7221 23.9103C73.475 23.9103 70.9166 21.3085 70.9166 18.0809C70.9166 14.8862 73.5078 12.2844 76.7221 12.2844C78.198 12.2844 79.5428 12.8443 80.5924 13.7665V13.2725ZM76.7221 21.9672C78.8868 21.9672 80.5924 20.2546 80.5924 18.0809C80.5924 15.9072 78.8868 14.1946 76.7221 14.1946C74.5573 14.1946 72.8518 15.9072 72.8518 18.0809C72.8518 20.2546 74.5573 21.9672 76.7221 21.9672Z" fill="#E6E6E6"/>
<path d="M92.2357 17.1587C92.2357 15.5449 90.8581 14.1617 89.251 14.1617C87.7094 14.1617 86.2662 14.7875 86.2662 17.0599V22.8894C86.2662 23.3834 85.8071 23.8115 85.3151 23.8115C84.7903 23.8115 84.3639 23.3834 84.3639 22.8894V13.2725C84.3639 12.7784 84.8231 12.3503 85.3151 12.3503C85.7743 12.3503 86.2334 12.7455 86.2662 13.2395C87.0862 12.6138 88.103 12.2844 89.2182 12.2844C91.8093 12.2844 94.138 14.3264 94.138 16.8953V22.8894C94.138 23.3834 93.6789 23.8115 93.1869 23.8115C92.6621 23.8115 92.2357 23.3834 92.2357 22.8894V17.1587Z" fill="#E6E6E6"/>
<path d="M23.6866 17.7516C23.6538 14.7874 21.0299 12.2844 17.914 12.2844C14.6669 12.2844 12.1085 14.8862 12.1085 18.0809C12.1085 21.3414 14.6997 23.9103 17.914 23.9103C19.4555 23.9103 20.8987 23.3175 21.9483 22.2636C22.1451 22.0989 22.2763 21.8025 22.2763 21.539C22.2763 21.0121 21.8171 20.5839 21.3251 20.5839C21.0299 20.5839 20.7675 20.7486 20.5707 20.9792C19.9147 21.6708 18.9635 22.0001 17.9468 22.0001C16.0116 22.0001 14.4373 20.6827 14.1093 18.8384H22.7682C22.7682 18.8384 22.7682 18.8384 22.8011 18.8384H22.8338H22.8667C22.8995 18.8384 22.9323 18.8384 22.9651 18.8054C23.3587 18.6407 23.6866 18.2456 23.6866 17.7516ZM17.914 14.1946C19.6523 14.1946 21.0955 15.3144 21.5875 16.8953H14.2077C14.6997 15.3144 16.1428 14.1946 17.914 14.1946Z" fill="#E6E6E6"/>
<path d="M58.1905 17.7516C58.1577 14.7874 55.501 12.2844 52.4179 12.2844C49.1708 12.2844 46.6124 14.8862 46.6124 18.0809C46.6124 21.3414 49.2036 23.9103 52.4179 23.9103C53.9594 23.9103 55.4026 23.3175 56.4522 22.2636C56.649 22.0989 56.7802 21.8025 56.7802 21.539C56.7802 21.0121 56.321 20.5839 55.829 20.5839C55.5338 20.5839 55.2714 20.7486 55.0746 20.9792C54.4186 21.6708 53.4675 22.0001 52.4507 22.0001C50.5155 22.0001 48.9412 20.6827 48.6132 18.8384H57.2722C57.2722 18.8384 57.2722 18.8384 57.305 18.8384H57.3378C57.3706 18.8384 57.4034 18.8384 57.4034 18.8384H57.4362C57.8298 18.6737 58.1905 18.2456 58.1905 17.7516ZM52.4179 14.1946C54.1562 14.1946 55.5994 15.3144 56.0914 16.8953H48.7116C49.2036 15.3144 50.6467 14.1946 52.4179 14.1946Z" fill="#E6E6E6"/>
<path d="M96.1718 23.8112C96.0734 23.8112 96.0078 23.7453 96.0078 23.6465V22.0327H95.647C95.5486 22.0327 95.483 21.9669 95.483 21.868C95.483 21.7692 95.5486 21.7034 95.647 21.7034H96.6966C96.795 21.7034 96.8606 21.7692 96.8606 21.868C96.8606 21.9669 96.795 22.0327 96.6966 22.0327H96.3358V23.6465C96.3358 23.7453 96.2702 23.8112 96.1718 23.8112Z" fill="#E6E6E6"/>
<path d="M98.0421 23.8112C97.9437 23.8112 97.9109 23.7453 97.8781 23.6795L97.4189 22.3621V23.6465C97.4189 23.7453 97.3533 23.8112 97.2549 23.8112C97.1565 23.8112 97.0909 23.7453 97.0909 23.6465V21.9339C97.0909 21.8022 97.1893 21.7034 97.3205 21.7034C97.4189 21.7034 97.5173 21.7692 97.5501 21.868L98.0093 23.2184L98.4685 21.868C98.5013 21.7692 98.5997 21.7034 98.6981 21.7034C98.8293 21.7034 98.9277 21.8022 98.9277 21.9339V23.6465C98.9277 23.7453 98.8621 23.8112 98.7637 23.8112C98.6653 23.8112 98.5997 23.7453 98.5997 23.6465V22.3621C98.5341 22.5597 98.4357 22.889 98.3373 23.1525C98.1733 23.6794 98.1405 23.6795 98.1405 23.6795C98.1733 23.7783 98.1077 23.8112 98.0421 23.8112Z" fill="#E6E6E6"/>
</g>
<defs>
<clipPath id="clip0_20_391">
<rect width="98.9812" height="32.9937" fill="white" transform="translate(0.565918 0.00341797)"/>
</clipPath>
</defs>
</svg>
