<svg width="121" height="37" viewBox="0 0 121 37" fill="none" xmlns="http://www.w3.org/2000/svg">
<path fill-rule="evenodd" clip-rule="evenodd" d="M117.575 35.0336C117.19 35.032 116.822 34.8772 116.55 34.6027C116.278 34.3282 116.125 33.9563 116.123 33.5681C116.14 33.1909 116.3 32.8346 116.57 32.5736C116.841 32.3126 117.201 32.167 117.575 32.167C117.949 32.167 118.308 32.3126 118.579 32.5736C118.849 32.8346 119.009 33.1909 119.026 33.5681C119.026 34.3709 118.377 35.0336 117.575 35.0336ZM117.575 31.8357C116.623 31.8357 115.851 32.6063 115.851 33.5681C115.851 34.5315 116.623 35.2847 117.575 35.2847C118.529 35.2847 119.299 34.53 119.299 33.5681C119.299 32.6063 118.527 31.8357 117.575 31.8357ZM117.249 33.4383V32.8822H117.567C117.749 32.8822 117.953 32.9374 117.953 33.1492C117.953 33.3859 117.726 33.4383 117.53 33.4383H117.249ZM118.3 33.1553C118.3 32.7377 117.946 32.5831 117.583 32.5831H116.904V34.5361H117.249V33.7202H117.5L117.954 34.5375H118.377L117.854 33.6822C118.128 33.6226 118.3 33.4366 118.3 33.1553ZM107.448 8.39356C107.917 8.40312 108.383 8.31818 108.818 8.14372C109.254 7.96927 109.651 7.7088 109.986 7.37756C110.321 7.04632 110.587 6.651 110.768 6.21468C110.95 5.77836 111.044 5.30985 111.044 4.83656C111.044 4.36326 110.95 3.89466 110.769 3.45827C110.587 3.02188 110.322 2.62642 109.987 2.29505C109.652 1.96368 109.255 1.70309 108.82 1.52846C108.384 1.35384 107.918 1.26867 107.449 1.27804C106.527 1.29668 105.649 1.6797 105.003 2.34488C104.357 3.01006 103.995 3.90437 103.995 4.8358C103.995 5.76723 104.357 6.66154 105.003 7.32672C105.649 7.9919 106.526 8.37492 107.448 8.39356ZM97.9935 11.4659V16.6853H104.531V35.0352H110.364V16.6853H116.903V11.4659H97.9935ZM47.1024 8.39356C47.5652 8.39367 48.0235 8.30176 48.4511 8.12302C48.8787 7.94428 49.2673 7.68218 49.5946 7.3518C49.9219 7.02142 50.1816 6.62921 50.3587 6.19751C50.5358 5.7658 50.627 5.30308 50.627 4.8358C50.627 4.36852 50.5358 3.9058 50.3587 3.47409C50.1816 3.04239 49.9219 2.65017 49.5946 2.3198C49.2673 1.98942 48.8787 1.72732 48.4511 1.54858C48.0235 1.36984 47.5652 1.27793 47.1024 1.27804C46.18 1.29668 45.3017 1.6797 44.6559 2.34488C44.0101 3.01006 43.6484 3.90437 43.6484 4.8358C43.6484 5.76723 44.0101 6.66154 44.6559 7.32672C45.3017 7.9919 46.18 8.37492 47.1024 8.39356ZM37.6464 16.6839H44.185V35.0352H50.0168V16.6853H56.5569V11.4659H37.6479L37.6464 16.6839ZM88.072 35.0352H93.9066V11.4805H88.0734L88.072 35.0352ZM76.2698 24.4357C76.2698 27.5768 74.5176 30.8141 70.8255 30.8141C67.0827 30.8141 66.4509 27.3316 66.4509 24.5335V11.4805H60.6177V26.2019C60.6177 31.0126 63.1447 35.7227 69.2222 35.7227C72.6715 35.7227 75.4428 33.6121 76.4634 31.2564H76.5602V35.0352H82.1013V11.4805H76.2696L76.2698 24.4357ZM26.0726 10.7931C22.6218 10.7931 19.852 12.9036 18.8313 15.2594H18.733V11.4805H13.1933V35.0352H19.025V22.08C19.025 18.939 20.7757 15.7002 24.4693 15.7002C28.2106 15.7002 28.8438 19.1842 28.8438 21.9822V35.0352H34.6755V20.311C34.6755 15.5032 32.1501 10.7931 26.0726 10.7931ZM1.38525 35.0352H7.217V11.4805H1.38525V35.0352Z" fill="#E6E6E6"/>
</svg>
