<svg width="122" height="33" viewBox="0 0 122 33" fill="none" xmlns="http://www.w3.org/2000/svg">
<g clip-path="url(#clip0_20_358)">
<path d="M16.6792 30.8707C14.8544 31.1932 12.9976 31.2899 11.0768 31.5474L5.21817 14.2774V32.2886C3.39345 32.4819 1.72877 32.7396 0 32.9974V0.00366211H4.86623L11.525 18.724V0.00366211H16.6792V30.8707ZM26.7636 12.0863C28.7486 12.0863 31.7898 11.9896 33.6146 11.9896V17.1448C31.3415 17.1448 28.6845 17.1448 26.7636 17.2415V24.9101C29.773 24.7168 32.7823 24.4588 35.8234 24.3621V29.3238L21.6412 30.4518V0.00366211H35.8234V5.15894H26.7636V12.0863ZM54.8716 5.15906H49.5574V28.8733C47.8286 28.8733 46.0999 28.8733 44.4354 28.9375V5.15906H39.1212V0.00366211H54.8719L54.8716 5.15906ZM63.1952 11.732H70.2063V16.8872H63.1952V28.5833H58.1687V0.00366211H72.4793V5.15894H63.1952V11.732ZM80.8028 24.0723C83.7161 24.1366 86.6612 24.3625 89.5106 24.5233V29.6142C84.9327 29.324 80.3547 29.0344 75.6807 28.9375V0.00366211H80.8028V24.0723ZM93.8324 29.9687C95.4651 30.0655 97.1939 30.1622 98.8586 30.3552V0.00366211H93.8324V29.9687ZM121.3 0.00366211L114.802 15.6951L121.3 32.9974C119.379 32.7396 117.459 32.3852 115.538 32.0629L111.856 22.5259L108.111 31.2899C106.254 30.9674 104.461 30.8707 102.605 30.6129L109.199 15.5016L103.245 0.00366211H108.751L112.112 8.67098L115.698 0.00366211L121.3 0.00366211Z" fill="#E6E6E6"/>
</g>
<defs>
<clipPath id="clip0_20_358">
<rect width="121.3" height="32.9937" fill="white" transform="translate(0 0.00341797)"/>
</clipPath>
</defs>
</svg>
